# xmcd
# 
# Track frame offsets:
#     150
#     25826
#     51548
#     70662
#     94833
#     109026
#     123908
#     139529
#     150531
#     172103
#     190247
#     205949
# 
# Disc length: 2892
# 
# Revision: 0
# Processed by: cddbd v1.5.2PL0 Copyright (c) Steve Scherf et al.
# Submitted via: fre:ac v1.0.31
# 
DISCID=a40b4a0c
DTITLE=Gonjasufi - The Caliph's Tea Party
DYEAR=2010
DGENRE=
TTITLE0=Ancestors ((Dreamtime) Mark Pritchard Rmx)
TTITLE1=Candylane (Bibio Remix)
TTITLE2=Ageing (Dam Mantle Remix)
TTITLE3=The Caliph's Tea Party (Broadcast and The Focus Group "DedNd" Remix)
TTITLE4=Kobwebz (Jeremiah Jae Remix)
TTITLE5=Love Of Reign (Bear In Heaven Remix)
TTITLE6=She's Gone (Oneohtrix Point Never Remix)
TTITLE7=Holidays (MRR Remix)
TTITLE8=Change (Shlohmo Remix)
TTITLE9=My Only Friend (Hezus Remix)
TTITLE10=DedNd (agdm Remix)
TTITLE11=SuzieQ (Dem Hunger Bowel Blood Remix)
EXTD=
EXTT0=
EXTT1=
EXTT2=
EXTT3=
EXTT4=
EXTT5=
EXTT6=
EXTT7=
EXTT8=
EXTT9=
EXTT10=
EXTT11=
PLAYORDER=
